<?xml version="1.0" encoding="UTF-8"?>
<svg xmlns="http://www.w3.org/2000/svg" xmlns:xlink="http://www.w3.org/1999/xlink" width="16px" height="16px" viewBox="0 0 16 16" version="1.1">
<g id="surface1">
<path style=" stroke:none;fill-rule:evenodd;fill:rgb(0%,0%,0%);fill-opacity:1;" d="M 8 12 C 9.839844 12 11.332031 10.507812 11.332031 8.667969 C 11.332031 6.824219 9.839844 5.332031 8 5.332031 C 6.160156 5.332031 4.667969 6.824219 4.667969 8.667969 C 4.667969 10.507812 6.160156 12 8 12 Z M 8 10.671875 C 6.894531 10.671875 5.996094 9.773438 5.996094 8.667969 C 5.996094 7.558594 6.894531 6.660156 8 6.660156 C 9.105469 6.660156 10.003906 7.558594 10.003906 8.667969 C 10.003906 9.773438 9.105469 10.671875 8 10.671875 Z M 8 10.671875 "/>
<path style=" stroke:none;fill-rule:evenodd;fill:rgb(0%,0%,0%);fill-opacity:1;" d="M 6.375 1.332031 C 5.457031 1.332031 4.65625 1.957031 4.433594 2.847656 L 4.144531 4 L 2.667969 4 C 1.5625 4 0.667969 4.894531 0.667969 6 L 0.667969 12.667969 C 0.667969 13.769531 1.5625 14.667969 2.667969 14.667969 L 13.332031 14.667969 C 14.4375 14.667969 15.332031 13.769531 15.332031 12.667969 L 15.332031 6 C 15.332031 4.894531 14.4375 4 13.332031 4 L 11.855469 4 L 11.566406 2.847656 C 11.34375 1.957031 10.542969 1.332031 9.625 1.332031 Z M 5.726562 3.171875 C 5.800781 2.875 6.070312 2.667969 6.375 2.667969 L 9.625 2.667969 C 9.929688 2.667969 10.199219 2.875 10.273438 3.171875 L 10.558594 4.324219 C 10.707031 4.917969 11.242188 5.332031 11.855469 5.332031 L 13.332031 5.332031 C 13.703125 5.332031 14 5.632812 14 6 L 14 12.667969 C 14 13.035156 13.703125 13.332031 13.332031 13.332031 L 2.667969 13.332031 C 2.296875 13.332031 2 13.035156 2 12.667969 L 2 6 C 2 5.632812 2.296875 5.332031 2.667969 5.332031 L 4.144531 5.332031 C 4.757812 5.332031 5.292969 4.917969 5.441406 4.324219 Z M 5.726562 3.171875 "/>
</g>
</svg>
